<svg width="36" height="23" viewBox="0 0 36 23" fill="none" xmlns="http://www.w3.org/2000/svg">
<path d="M22.55 20.852C21.73 20.237 21.238 19.212 21.238 18.228V8.88C21.197 5.682 22.509 3.55 24.149 3.55C25.748 3.55 26.773 5.436 26.773 8.347V17.695C26.773 20.934 28.372 22.41 31.078 22.41C34.194 22.41 35.67 20.483 35.67 19.458C35.342 20.032 34.686 20.032 34.686 20.032C33.907 20.032 33.538 19.622 33.538 18.556V7.937C33.538 3.386 31.201 0.310998 27.142 0.310998C24.19 0.310998 21.853 1.992 20.705 4.657C19.885 2.156 17.999 0.310998 14.801 0.310998C12.054 0.310998 10.086 1.705 8.897 3.632V0.762H7.216L0.41 2.033V2.894L0.779 3.181C1.599 3.755 2.132 4.821 2.132 5.805V18.228C2.132 19.212 1.599 20.237 0.779 20.852L0.41 21.139V22H10.619V21.139L10.209 20.852C9.471 20.237 8.897 19.212 8.897 18.228V8.06C9.061 6.215 9.799 3.55 11.849 3.55C14.022 3.55 14.432 6.789 14.432 8.347V22H22.919V21.139L22.55 20.852Z" fill="white"/>
</svg>
